# xmcd
#
# Track frame offsets: 
#        150
#        13664
#        24277
#        37354
#        49969
#        61824
#        73454
#        85692
#        98739
#        112144
#        123311
#        136792
#        150082
#        163004
#        176474
#        188749
#        200304
#        214902
#        225300
#        239037
#        251780
#        265015
#        276272
#        289657
#        302492
#        313407
#        325870
#
# Disc length: 4521 seconds
#
# Revision: 0
# Processed by: cddbd v1.5.2PL0 Copyright (c) Steve Scherf et al.
# Submitted via: ExactAudioCopyFreeDBPlugin 1.0
#
DISCID=8311a71b
DTITLE=Tharpe, Rosetta - Sister Rosetta Tharpe
DYEAR=1947
DGENRE=
TTITLE0=I Looked Down The Line
TTITLE1=Sit Down
TTITLE2=Stand by Me
TTITLE3=Rock Me
TTITLE4=That's All
TTITLE5=I Want to Live so God Can Use Me
TTITLE6=I Claim Jesus First
TTITLE7=Strange Things Happening Every Day
TTITLE8=Two Little Fishes and Five Loaves of Bread
TTITLE9=Don't Take Everybody to Be Your Friend
TTITLE10=How Far from God
TTITLE11=When I Move to the Sky
TTITLE12=Jesus Is Here to Stay
TTITLE13=Oh When I Come to the End of My Journey
TTITLE14=Beams of Heaven
TTITLE15=Up Above My Head I Hear Music in the Air
TTITLE16=My Journey to the Sky
TTITLE17=You Had It Coming to You
TTITLE18=What Goes Up Must Come Down
TTITLE19=Jeepers Creepers
TTITLE20=Bread and Gravy
TTITLE21=They Say
TTITLE22=Baby What Else Can I Do
TTITLE23=If You Ever Change Your Mind
TTITLE24=I Just Got a Letter
TTITLE25=Push Out
TTITLE26=Old Man Harlem
EXTD=
EXTT0=
EXTT1=
EXTT2=
EXTT3=
EXTT4=
EXTT5=
EXTT6=
EXTT7=
EXTT8=
EXTT9=
EXTT10=
EXTT11=
EXTT12=
EXTT13=
EXTT14=
EXTT15=
EXTT16=
EXTT17=
EXTT18=
EXTT19=
EXTT20=
EXTT21=
EXTT22=
EXTT23=
EXTT24=
EXTT25=
EXTT26=
PLAYORDER=
